<svg width="100%" height="100%" viewBox="0 0 193 100" fill="none" xmlns="http://www.w3.org/2000/svg">
<path d="M44.9324 1.66824C44.4663 1.39021 43.6273 1.39021 43.1612 1.66824L2.33068 25.1159C1.86458 25.3939 1.4917 26.0427 1.4917 26.5987V73.4013C1.4917 73.9574 1.86458 74.6061 2.33068 74.8842L43.1612 98.3318C43.6273 98.6099 44.4663 98.6099 44.9324 98.3318L85.7629 74.8842C86.229 74.6061 86.6019 73.9574 86.6019 73.4013V26.5987C86.6019 26.0427 86.229 25.3939 85.7629 25.1159L44.9324 1.66824Z" fill="white"/>
<path d="M44.839 1.66821L85.6695 25.1158C86.1356 25.3939 86.5085 26.0426 86.5085 26.5987V73.4013C86.5085 73.9574 86.1356 74.6061 85.6695 74.8842L44.839 98.3318C44.5593 98.4245 44.2797 98.5172 44 98.5172C43.7203 98.5172 43.3475 98.4245 43.161 98.3318L2.33051 74.8842C1.86441 74.6061 1.49153 73.9574 1.49153 73.4013V26.5987C1.49153 26.0426 1.86441 25.3939 2.33051 25.1158L43.161 1.66821C43.3475 1.57553 43.7203 1.48285 44 1.48285C44.2797 1.48285 44.6525 1.57553 44.839 1.66821ZM42.4153 0.370714L1.58475 23.8184C0.652542 24.3744 0 25.5792 0 26.5987V73.4013C0 74.5134 0.652542 75.6256 1.58475 76.1817L42.4153 99.6293C42.9746 100 43.6271 100 44 100C44.3729 100 45.0254 99.9073 45.5847 99.6293L86.4153 76.1817C87.3475 75.6256 88 74.4208 88 73.4013V26.5987C88 25.4866 87.3475 24.3744 86.4153 23.8184L45.678 0.370714C45.0254 0 44.4661 0 44 0C43.6271 0 42.9746 0.0926784 42.4153 0.370714Z" fill="url(#paint0_linear_1:4166)"/>
<path d="M43.9851 87.8431L12.0815 69.5338C11.7095 69.3479 11.4304 68.7902 11.4304 68.4185V32.3574C11.4304 31.8927 11.7095 31.428 12.0815 31.2421L43.9851 12.6005" fill="#0063CB"/>
<path d="M11.4339 68.2563L11.4304 32.1455C11.4304 31.6801 11.7095 31.2148 12.0815 31.0286L43.9851 12.601" fill="#000091"/>
<path fill-rule="evenodd" clip-rule="evenodd" d="M32.5887 32.1338L21.8855 50.4845L12.1904 30.9628L23.6592 24.3384L33.2104 31.0577L32.5887 32.1338Z" fill="#E1000F"/>
<path d="M43.98 87.8438L75.8881 69.3176C76.2601 69.1319 76.5392 68.575 76.5392 68.2037V32.1872C76.5392 31.7231 76.2601 31.259 75.8881 31.0733L43.9845 12.601" fill="#000091"/>
<path d="M76.5368 68.2563L76.5395 32.1731C76.5395 31.7093 76.2605 31.2455 75.8884 31.06L43.9849 12.601" fill="#E1000F"/>
<path fill-rule="evenodd" clip-rule="evenodd" d="M54.5278 30.6758L65.9901 50.3278L75.5423 30.8595L63.9242 24.1375L54.5278 30.6758Z" fill="#0063CB"/>
<path fill-rule="evenodd" clip-rule="evenodd" d="M56.0759 29.9366C56.8251 30.3122 57.521 30.7947 58.003 31.5457C58.2169 31.8681 58.4849 32.4583 58.3243 32.8877C58.1096 33.3702 58.003 34.2289 57.521 34.3898C56.9325 34.7121 56.1292 34.7121 55.38 34.6044C54.9521 34.6044 54.5775 34.4974 54.1489 34.3898C55.648 34.98 57.0931 35.731 58.1096 37.1268C58.2169 37.3408 58.5915 37.4485 59.0195 37.4485C59.1268 37.4485 59.1268 37.6631 59.1268 37.7701C58.9128 37.9848 58.6989 38.0925 58.8055 38.3603H59.1268C59.6087 38.1457 59.5554 37.1268 60.2506 37.4485C60.7326 37.7701 60.9465 38.468 60.6792 38.9512C60.2506 39.3799 59.876 39.6484 59.4481 39.9701C59.3408 40.1848 59.3408 40.4533 59.4481 40.668C59.7694 41.0974 59.876 41.4729 59.9293 41.9022C60.2506 42.5994 60.358 43.4043 60.6259 44.1554C61.0539 45.6581 61.4285 47.2141 61.3211 48.7168C61.3211 49.5217 60.8932 50.2189 61.2145 51.0238C61.4285 51.8287 61.9097 52.4189 62.3383 53.1699C62.7663 53.7608 63.1409 54.1895 63.4622 54.7804C63.5927 55.0067 63.75 55.2329 63.9106 55.4612L64.0712 55.6902C64.5757 56.4174 65.0324 57.1692 64.6933 57.9993C64.372 58.6971 63.3015 58.5901 62.5523 59.0188C61.9637 59.502 62.4457 60.3607 62.7663 60.8433C63.2482 61.7558 62.1777 62.346 61.4285 62.6677C61.6424 62.9901 62.017 62.8824 62.1237 63.0971C62.231 63.5796 62.7129 63.902 62.4457 64.4383C62.3226 64.6074 62.1394 64.7539 61.9535 64.8984L61.814 65.0074C61.4011 65.3339 61.0498 65.676 61.4285 66.2628C61.8564 66.9607 61.5891 67.7649 61.3211 68.5166C60.9998 69.4285 60.1973 69.8578 59.5014 70.0194C58.9128 70.2334 58.1629 70.2334 57.575 70.1264C57.3604 70.0194 57.1464 69.9117 56.9858 69.9117C55.2727 69.697 53.5603 69.2138 51.8479 69.2138C51.3659 69.3215 50.8307 69.4285 50.4561 69.59C49.9741 69.9117 49.5995 70.2872 49.2249 70.6627C49.1716 70.7704 49.0643 70.8236 49.011 70.9313C48.9576 70.9851 48.9043 71.0383 48.9043 71.0921L48.8722 71.1241L48.8284 71.1677C48.8202 71.1759 48.81 71.1861 48.797 71.1991C48.4757 71.5753 48.2617 71.9508 47.9944 72.3795C47.9944 72.4333 47.9404 72.4333 47.9404 72.4333C47.9404 72.4872 47.8871 72.541 47.8338 72.5942C47.5118 73.1851 47.2445 73.8284 47.0839 74.4725C46.388 76.7794 46.7093 78.7654 47.1912 79.2486C47.5118 79.5703 51.3667 80.763 54.7566 81.8718C48.8335 86.8083 44.046 89.2766 40.3943 89.2766C35.3514 89.2766 26.8936 85.9325 15.0208 79.2443C17.8946 79.2443 17.4856 80.3936 20.1619 79.0558C21.4463 78.5208 24.3366 77.1829 25.3005 76.2199C25.889 75.6311 26.4776 75.0429 27.0129 74.4009C28.0834 73.1701 29.1539 72.0462 30.385 70.9756C30.7596 70.6552 31.1343 70.3336 31.5089 70.1196C31.6162 70.0126 31.6162 69.7986 31.7228 69.6916C31.2416 69.9056 30.9196 70.2804 30.385 70.4944C30.2777 70.4944 30.1711 70.3874 30.2777 70.2804C30.6523 70.0126 31.0269 69.7454 31.3482 69.4776H31.2949C31.1876 69.4776 31.1876 69.3706 31.1876 69.2635C29.8498 69.0496 28.8859 69.9594 27.976 70.7616C27.7621 70.8692 27.5481 70.6552 27.4948 70.6552C25.9957 71.1364 24.8718 72.4742 23.3734 73.0631V72.8484C22.7848 73.0631 22.1956 73.4372 21.5537 73.5442C20.6438 73.7582 19.8406 73.6512 19.038 73.6512C17.8069 73.7582 16.5757 74.0261 15.3446 74.2939C15.2913 74.2939 15.2913 74.2939 15.2379 74.3471C14.5954 74.5072 13.9535 74.7751 13.3642 75.0961L13.3109 75.1499C13.2576 75.2031 13.2036 75.2569 13.1502 75.3101C12.9363 75.5241 12.7223 75.7919 12.4543 75.8989C11.8124 76.2199 11.3305 76.7549 10.7953 77.2368C10.7419 77.2899 10.6886 77.2899 10.6346 77.2899C10.0994 77.8256 10.7419 76.2199 11.3305 75.8451C11.2772 75.8451 11.1699 75.7919 11.2232 75.7388C11.2772 75.6311 11.3305 75.5779 11.3838 75.4709C11.3838 75.4171 11.3838 75.4171 11.4371 75.3639L11.4289 75.3319L11.3927 75.2883C11.3872 75.2801 11.3838 75.2705 11.3838 75.2569C11.2232 75.3639 11.0632 75.4709 10.9026 75.5779C10.6346 75.7919 10.7419 74.5611 11.0092 74.4009H10.9559C11.3305 74.1862 11.7591 73.9722 12.1337 73.7582L12.2937 73.5981C11.7051 73.8121 11.2232 74.0799 10.6886 74.4009C10.6886 74.4009 10.6886 74.0261 10.8493 73.8659C10.9559 73.8659 11.0632 73.8659 11.0632 73.9722C13.0039 72.477 15.3617 72.0789 17.7419 71.732L18.3914 71.638C19.7982 71.4329 21.2003 71.2127 22.5169 70.7616C22.8381 70.5476 23.1054 70.3336 23.4267 70.1734C23.9087 69.9594 24.3366 69.4776 24.9252 69.1566C25.7284 68.5677 26.317 67.8187 26.6383 66.8557C26.6383 66.7487 26.5316 66.6417 26.5316 66.6417C25.1931 68.0327 23.6947 69.1566 22.0889 69.9594C19.9479 71.0832 17.6462 70.8692 15.3986 71.1902C15.5052 70.9756 15.7199 70.9756 15.8798 70.9756C15.8798 70.6552 16.0938 70.5476 16.3078 70.3874H16.6297C16.7364 70.3874 16.7364 70.1734 16.8437 70.1734C17.0577 70.1734 17.3783 70.0664 17.2716 70.0664C16.9503 69.6377 16.3618 70.3874 15.8798 70.0664C16.0938 69.8524 15.9872 69.5846 16.2011 69.4776H16.6297C16.6297 69.2636 16.8437 69.0496 16.8437 69.0496C18.3421 68.1397 19.7873 67.4446 21.1784 66.6417C20.8578 66.6417 20.6971 66.9627 20.3758 66.7487C20.5905 66.7487 20.3758 66.4277 20.5905 66.4277C21.7143 66.1067 22.6242 65.5179 23.748 65.0899C23.3201 65.0899 23.0521 65.4109 22.6242 65.0899C22.8381 64.9829 22.9448 64.7689 23.2128 64.7689V64.4479C23.2128 64.3402 23.3201 64.3402 23.4267 64.3402C23.3201 64.3402 23.2128 64.2339 23.2128 64.2339C23.3201 64.0192 23.6414 64.1269 23.8013 63.9129C23.6947 63.9129 23.4807 63.9129 23.4807 63.8052C23.8013 63.3772 24.2833 63.324 24.8185 63.217C24.7112 63.003 24.3906 63.217 24.3906 63.003C24.3906 62.911 24.4685 62.8981 24.5588 62.896H24.3906C24.1759 62.789 24.2833 62.575 24.2833 62.4674C24.8718 61.7722 24.8718 60.8624 25.1931 60.0595C25.0858 60.0595 24.9792 60.0595 24.9792 59.9532C23.962 61.0764 22.3562 61.4512 20.8578 61.8792H20.1619C19.6806 62.0932 18.9307 62.0932 18.4495 61.7722C18.0209 61.5582 17.8602 61.2904 17.4323 60.9694C16.6297 60.4882 15.8265 60.0595 14.9166 59.7392C12.401 58.9364 9.77874 58.5077 7.15579 58.6154C8.27962 58.0265 9.51078 57.9727 10.6886 57.5985C12.401 57.1167 14.0068 56.4747 15.8265 56.5817C15.5052 56.4747 15.1306 56.5817 14.81 56.5817C13.4175 56.4747 11.9731 56.9027 10.474 57.1705C9.45677 57.3838 8.54691 57.7587 7.5304 57.9727C6.94182 58.1867 6.62053 58.7755 5.92464 58.6685V58.3475C6.94182 57.1167 8.17298 55.9397 9.77874 55.8327C11.5985 55.511 13.3109 55.8327 15.1306 56.0467C16.4691 56.1537 17.6462 56.4747 18.984 56.7425C19.466 56.7425 19.5733 57.5447 20.0012 57.6517C20.5905 57.8657 21.2324 57.6517 21.821 58.0797C21.821 57.8657 21.7143 57.6517 21.821 57.4915C22.2489 57.0635 22.7308 57.5985 23.1588 57.3838C23.962 56.9027 22.4635 55.9928 22.0349 55.2438C22.0349 55.1368 22.1422 55.0298 22.1422 55.0298C22.9448 55.7257 23.534 56.5285 24.5512 57.0635C25.0325 57.2775 26.2636 57.5447 26.049 56.9565C25.5677 55.8327 24.5512 54.9228 23.6947 53.906V53.478C23.4807 53.478 23.4807 53.371 23.3734 53.264V52.836C22.9448 52.622 23.0521 52.2472 22.8915 51.9262C22.5709 51.445 22.7848 50.6953 22.5709 50.1072C22.3562 49.5183 22.2489 48.9833 22.1422 48.3945C21.821 46.6825 21.4463 45.1838 21.2324 43.525C21.0184 41.599 22.3562 40.1003 23.2661 38.3883C23.962 37.1574 24.7652 35.9804 26.103 35.1776C26.4243 33.9468 27.2268 32.9299 28.0294 31.9669C28.8326 31.0032 30.1711 30.3619 31.1343 29.9332C32.4263 29.3376 33.1105 29.127 33.7914 28.9225C33.7955 28.9212 33.8057 28.9184 33.8099 28.9164C34.799 28.4829 47.7873 25.7568 54.0955 28.9164C54.2295 28.9839 54.2029 28.9164 54.6308 29.1849C55.1127 29.4534 55.7013 29.7751 56.0759 29.9366ZM7.07067 59.285C7.07067 59.7555 6.75377 60.1746 6.27908 60.2785C7.07067 60.4878 7.86225 60.4878 8.65451 60.8543C8.54865 61.0635 8.33761 60.9589 8.23242 60.9589C8.7071 61.2728 9.34091 61.0635 9.81627 61.43C9.49936 61.7439 9.23573 61.43 8.91882 61.43C12.0332 62.319 15.3061 62.9993 17.8933 64.9878C15.6763 66.0866 13.406 66.5571 11.0306 67.0802C10.7137 67.0802 10.5553 67.0802 10.2384 66.9756C10.2384 67.0802 10.2384 67.2894 10.1332 67.2894C9.71041 67.2894 9.4461 67.2894 9.12987 67.4987C8.7597 67.8125 8.17983 67.9178 7.86225 67.6033C7.75707 67.4987 8.17983 67.6033 8.28502 67.3947H7.49343C7.38757 67.3947 7.38757 67.2894 7.38757 67.1855C6.91222 67.2894 6.27908 67.4987 5.80373 67.6033C5.11733 67.8125 5.43423 64.412 5.90959 64.2028C5.80373 64.0982 5.59269 64.0982 5.59269 63.8889C5.1706 63.8889 5.01215 62.8421 5.27578 62.7901C5.69787 62.6855 6.17323 62.6855 6.49013 62.3716C5.80373 62.267 5.59269 59.8081 6.75377 59.1797C6.85963 59.1797 7.07067 59.1797 7.07067 59.285ZM11.6696 68.5266C11.0291 69.1822 10.2286 68.884 9.53568 69.1822C9.32174 69.1822 8.94838 69.3013 9.05534 69.0631C9.12211 68.7277 9.41781 68.6025 9.73462 68.4971L9.92539 68.4348C10.0521 68.3923 10.1754 68.3483 10.2824 68.2884C10.4957 68.1693 10.7621 67.931 10.9753 68.0501C11.1886 68.4075 11.4556 68.2884 11.6696 68.5266ZM8.03697 54.8196C7.92966 54.8196 7.82167 54.8196 7.71367 54.712C7.82167 54.6044 7.82167 54.4967 7.82167 54.3891C6.79809 55.5189 4.48199 55.1425 6.63644 54.1197C7.4447 53.7968 8.46759 53.9044 9.27585 54.2273C8.95254 54.6585 8.46759 54.5502 8.03697 54.8196ZM57.3297 48.0943C57.2364 48.1138 57.1423 48.1326 57.0497 48.1488C56.5593 48.1488 56.0139 48.4651 55.5228 48.5706C54.8136 48.7815 54.1595 49.1509 53.5598 49.5727C54.2682 49.2564 54.9773 49.1509 55.7958 48.9924C56.3956 48.8869 56.8867 48.7815 57.5408 48.8869C57.9769 48.9924 58.5773 48.9924 58.5773 49.2033C58.3593 49.9946 57.1591 50.2055 56.505 50.9967H56.1776C55.8502 51.2076 55.9595 51.6818 55.6865 51.6818C55.3591 51.5771 55.0867 51.6818 54.7593 51.788C55.1954 52.2098 55.6865 52.4731 56.2862 52.3676C56.3956 52.3676 56.6136 52.5785 56.6136 52.7895C56.6136 52.7895 56.723 52.7895 56.8317 52.684C56.941 52.684 57.0497 52.684 57.0497 52.7895V53.2113C56.854 53.4645 56.5983 53.49 56.3315 53.4927L56.1518 53.4934C56.0327 53.4941 55.9122 53.4994 55.7958 53.5276C56.6136 53.7386 57.4321 53.7386 58.1949 53.5276C58.7954 53.3167 58.1949 52.3152 58.6317 51.8404C58.4136 51.8404 58.6317 51.524 58.4136 51.524C58.6317 51.3131 58.8497 51.0491 59.0134 50.9437C59.2314 50.9437 59.5045 50.8382 59.6139 50.6273C59.6139 50.4164 59.1771 50.3109 59.2865 50.1531C59.8862 49.7313 60.4317 49.1509 60.2129 48.5706C60.1043 48.2542 59.2865 48.2542 58.7954 48.0433C58.4554 47.8975 58.0375 47.9533 57.6132 48.0366L57.3297 48.0943Z" fill="white"/>
<path d="M105.878 69.6611C107.39 69.6611 108.75 69.3508 109.959 68.7303C111.169 68.1098 112.155 67.2824 112.919 66.2482L110.246 64.1957C109.768 64.8799 109.16 65.4328 108.42 65.8544C107.68 66.2761 106.833 66.4869 105.878 66.4869C105.099 66.4869 104.375 66.3397 103.706 66.0453C103.038 65.751 102.469 65.3532 102 64.852C101.531 64.3508 101.161 63.7542 100.89 63.0621C100.62 62.3699 100.484 61.6261 100.484 60.8305C100.484 60.035 100.62 59.2912 100.89 58.599C101.161 57.9069 101.531 57.3103 102 56.8091C102.469 56.3079 103.038 55.9101 103.706 55.6158C104.375 55.3214 105.099 55.1742 105.878 55.1742C106.833 55.1742 107.68 55.385 108.42 55.8067C109.16 56.2283 109.768 56.7812 110.246 57.4654L112.919 55.389C112.155 54.3866 111.169 53.5712 109.959 52.9427C108.75 52.3142 107.39 52 105.878 52C104.574 52 103.372 52.2387 102.274 52.716C101.177 53.1933 100.238 53.8298 99.4582 54.6253C98.6786 55.4208 98.074 56.3556 97.6444 57.4296C97.2148 58.5036 97 59.6372 97 60.8305C97 62.0239 97.2148 63.1575 97.6444 64.2315C98.074 65.3055 98.6786 66.2403 99.4582 67.0358C100.238 67.8313 101.177 68.4678 102.274 68.9451C103.372 69.4224 104.574 69.6611 105.878 69.6611ZM120.699 69.6611C121.67 69.6611 122.561 69.4901 123.372 69.148C124.184 68.8059 124.88 68.3445 125.461 67.7637C126.041 67.183 126.491 66.4948 126.809 65.6993C127.127 64.9037 127.286 64.0605 127.286 63.1695C127.286 62.2784 127.127 61.4352 126.809 60.6396C126.491 59.8441 126.041 59.1559 125.461 58.5752C124.88 57.9944 124.184 57.533 123.372 57.1909C122.561 56.8488 121.67 56.6778 120.699 56.6778C119.729 56.6778 118.838 56.8488 118.026 57.1909C117.215 57.533 116.519 57.9944 115.938 58.5752C115.357 59.1559 114.908 59.8441 114.589 60.6396C114.271 61.4352 114.112 62.2784 114.112 63.1695C114.112 64.0605 114.271 64.9037 114.589 65.6993C114.908 66.4948 115.357 67.183 115.938 67.7637C116.519 68.3445 117.215 68.8059 118.026 69.148C118.838 69.4901 119.729 69.6611 120.699 69.6611ZM120.747 66.7971C119.745 66.7971 118.913 66.4551 118.253 65.7709C117.593 65.0867 117.263 64.2196 117.263 63.1695C117.263 62.1193 117.593 61.2522 118.253 60.568C118.913 59.8838 119.745 59.5418 120.747 59.5418C121.702 59.5418 122.505 59.8838 123.158 60.568C123.81 61.2522 124.136 62.1193 124.136 63.1695C124.136 64.2037 123.81 65.0668 123.158 65.7589C122.505 66.4511 121.702 66.7971 120.747 66.7971ZM132.847 69.1838V61.3317C133.07 60.9499 133.4 60.5561 133.838 60.1504C134.275 59.7446 134.876 59.5418 135.64 59.5418C136.372 59.5418 136.948 59.7765 137.37 60.2458C137.792 60.7152 138.002 61.3477 138.002 62.1432V69.1838H141.081V62.0239C141.081 61.1329 140.958 60.3532 140.711 59.685C140.465 59.0167 140.13 58.4598 139.709 58.0143C139.287 57.5688 138.794 57.2347 138.229 57.0119C137.664 56.7892 137.056 56.6778 136.403 56.6778C135.608 56.6778 134.92 56.817 134.339 57.0955C133.758 57.3739 133.261 57.712 132.847 58.1098V57.1551H129.816V69.1838H132.847ZM147.31 69.1838V61.3317C147.533 60.9499 147.863 60.5561 148.301 60.1504C148.738 59.7446 149.339 59.5418 150.103 59.5418C150.835 59.5418 151.411 59.7765 151.833 60.2458C152.255 60.7152 152.465 61.3477 152.465 62.1432V69.1838H155.544V62.0239C155.544 61.1329 155.421 60.3532 155.174 59.685C154.928 59.0167 154.593 58.4598 154.172 58.0143C153.75 57.5688 153.257 57.2347 152.692 57.0119C152.127 56.7892 151.519 56.6778 150.866 56.6778C150.071 56.6778 149.383 56.817 148.802 57.0955C148.221 57.3739 147.724 57.712 147.31 58.1098V57.1551H144.279V69.1838H147.31ZM164.566 69.6611C165.695 69.6611 166.714 69.4423 167.621 69.0048C168.527 68.5672 169.259 67.9745 169.816 67.2267L167.644 65.5084C167.326 65.9379 166.905 66.284 166.379 66.5465C165.854 66.8091 165.266 66.9403 164.613 66.9403C163.595 66.9403 162.76 66.6619 162.107 66.105C161.455 65.5481 161.081 64.7765 160.986 63.79H169.41C169.458 63.5831 169.502 63.3286 169.542 63.0263C169.582 62.7239 169.601 62.4057 169.601 62.0716C169.601 60.4964 169.092 59.2037 168.074 58.1933C167.056 57.183 165.719 56.6778 164.064 56.6778C163.078 56.6778 162.203 56.8488 161.439 57.1909C160.675 57.533 160.031 57.9984 159.506 58.5871C158.981 59.1758 158.579 59.864 158.301 60.6516C158.022 61.4391 157.883 62.2784 157.883 63.1695C157.883 64.0445 158.03 64.8759 158.325 65.6635C158.619 66.4511 159.049 67.1392 159.613 67.7279C160.178 68.3166 160.878 68.786 161.714 69.136C162.549 69.4861 163.5 69.6611 164.566 69.6611ZM166.594 61.4988H161.177C161.383 60.7192 161.733 60.1424 162.227 59.7685C162.72 59.3946 163.333 59.2076 164.064 59.2076C164.86 59.2076 165.477 59.4423 165.914 59.9117C166.352 60.3811 166.578 60.9101 166.594 61.4988ZM178.002 69.6611C179.1 69.6611 180.083 69.4383 180.95 68.9928C181.817 68.5473 182.529 67.9586 183.086 67.2267L180.675 65.389C180.389 65.8027 180.019 66.1408 179.566 66.4033C179.112 66.6659 178.591 66.7971 178.002 66.7971C177 66.7971 176.169 66.4551 175.508 65.7709C174.848 65.0867 174.518 64.2196 174.518 63.1695C174.518 62.1193 174.844 61.2522 175.496 60.568C176.149 59.8838 176.968 59.5418 177.955 59.5418C178.575 59.5418 179.112 59.673 179.566 59.9356C180.019 60.1981 180.389 60.5362 180.675 60.9499L183.086 59.1122C182.529 58.3803 181.817 57.7916 180.95 57.3461C180.083 56.9006 179.1 56.6778 178.002 56.6778C176.968 56.6778 176.037 56.8528 175.21 57.2029C174.383 57.5529 173.687 58.0223 173.122 58.611C172.557 59.1997 172.123 59.8878 171.821 60.6754C171.519 61.463 171.368 62.2944 171.368 63.1695C171.368 64.0445 171.519 64.8759 171.821 65.6635C172.123 66.4511 172.557 67.1392 173.122 67.7279C173.687 68.3166 174.383 68.786 175.21 69.136C176.037 69.4861 176.968 69.6611 178.002 69.6611ZM190.437 69.4224C190.93 69.4224 191.364 69.3906 191.737 69.327C192.111 69.2633 192.449 69.1679 192.752 69.0406V66.3914C192.545 66.471 192.298 66.5346 192.012 66.5823C191.726 66.6301 191.375 66.6539 190.962 66.6539C190.373 66.6539 189.908 66.5107 189.566 66.2243C189.224 65.9379 189.053 65.4606 189.053 64.7924V59.9236H192.728V57.1551H189.053V54.148H185.998V57.1551H183.754V59.9236H185.998V64.7924C185.998 66.2562 186.364 67.3938 187.095 68.2052C187.827 69.0167 188.941 69.4224 190.437 69.4224Z" fill="#E1000F"/>
<path d="M99 47.8H102.408V40.696H107.832V37.792H102.408V33.904H108.792V31H99V47.8Z" fill="#000091"/>
<path d="M110.388 47.8H113.436V40.216C113.652 39.856 114.012 39.496 114.492 39.16C114.972 38.824 115.596 38.656 116.34 38.656C116.604 38.656 116.844 38.68 117.06 38.704C117.276 38.752 117.492 38.776 117.684 38.824V35.632C117.54 35.584 117.372 35.56 117.204 35.512C117.012 35.488 116.82 35.464 116.628 35.464C115.932 35.464 115.332 35.608 114.804 35.896C114.276 36.184 113.82 36.52 113.436 36.904V35.704H110.388V47.8Z" fill="#000091"/>
<path d="M122.528 48.28C123.224 48.28 123.896 48.136 124.568 47.848C125.216 47.56 125.744 47.152 126.128 46.672V47.8H129.2V39.976C129.2 39.328 129.08 38.704 128.864 38.128C128.624 37.552 128.288 37.048 127.856 36.616C127.424 36.184 126.872 35.848 126.2 35.608C125.528 35.368 124.76 35.224 123.896 35.224C122.792 35.224 121.808 35.44 120.944 35.872C120.08 36.304 119.36 36.904 118.832 37.624L121.088 39.328C121.352 38.872 121.712 38.512 122.192 38.272C122.672 38.032 123.2 37.888 123.8 37.888C124.472 37.888 125.048 38.08 125.48 38.464C125.912 38.848 126.128 39.352 126.128 39.976V40.288L122.48 40.912C121.184 41.128 120.176 41.56 119.48 42.232C118.784 42.904 118.448 43.696 118.448 44.608C118.448 45.76 118.808 46.648 119.576 47.296C120.344 47.968 121.328 48.28 122.528 48.28ZM121.472 44.488C121.472 44.104 121.592 43.792 121.88 43.528C122.168 43.288 122.624 43.096 123.272 42.976L126.128 42.472V44.128C125.816 44.632 125.408 45.04 124.928 45.352C124.424 45.688 123.824 45.832 123.152 45.832C122.624 45.832 122.216 45.712 121.928 45.448C121.616 45.208 121.472 44.872 121.472 44.488Z" fill="#000091"/>
<path d="M132.209 47.8H135.257V39.904C135.473 39.52 135.809 39.136 136.241 38.728C136.673 38.32 137.297 38.104 138.065 38.104C138.785 38.104 139.361 38.344 139.793 38.824C140.225 39.304 140.441 39.928 140.441 40.72V47.8H143.537V40.6C143.537 39.712 143.393 38.92 143.153 38.248C142.913 37.576 142.577 37.024 142.145 36.568C141.713 36.136 141.233 35.8 140.657 35.56C140.081 35.344 139.481 35.224 138.833 35.224C138.017 35.224 137.321 35.368 136.745 35.656C136.169 35.944 135.665 36.28 135.257 36.664V35.704H132.209V47.8Z" fill="#000091"/>
<path d="M152.326 45.4C151.318 45.4 150.478 45.064 149.806 44.368C149.134 43.696 148.822 42.808 148.822 41.752C148.822 40.696 149.134 39.832 149.806 39.136C150.454 38.464 151.27 38.104 152.278 38.104C152.902 38.104 153.43 38.248 153.886 38.512C154.342 38.776 154.726 39.112 155.014 39.52L157.438 37.672C156.862 36.952 156.142 36.352 155.278 35.896C154.414 35.464 153.43 35.224 152.326 35.224C151.27 35.224 150.334 35.416 149.518 35.752C148.678 36.112 147.982 36.592 147.406 37.168C146.83 37.768 146.398 38.464 146.11 39.256C145.798 40.048 145.654 40.888 145.654 41.752C145.654 42.64 145.798 43.48 146.11 44.272C146.398 45.064 146.83 45.76 147.406 46.336C147.982 46.936 148.678 47.416 149.518 47.752C150.334 48.112 151.27 48.28 152.326 48.28C153.43 48.28 154.414 48.064 155.278 47.608C156.142 47.176 156.862 46.576 157.438 45.832L155.014 43.984C154.726 44.416 154.342 44.752 153.886 45.016C153.43 45.28 152.902 45.4 152.326 45.4Z" fill="#000091"/>
<path d="M169.9 45.832L167.716 44.104C167.381 44.536 166.972 44.896 166.444 45.16C165.916 45.424 165.317 45.544 164.669 45.544C163.637 45.544 162.796 45.28 162.148 44.704C161.476 44.152 161.117 43.384 161.021 42.376H169.493C169.541 42.184 169.564 41.92 169.612 41.608C169.66 41.32 169.685 40.984 169.685 40.648C169.685 39.064 169.157 37.768 168.148 36.76C167.117 35.752 165.772 35.224 164.117 35.224C163.108 35.224 162.245 35.416 161.477 35.752C160.708 36.088 160.06 36.568 159.532 37.144C159.004 37.744 158.596 38.44 158.308 39.232C158.021 40.024 157.9 40.864 157.9 41.752C157.9 42.64 158.044 43.48 158.332 44.272C158.62 45.064 159.052 45.76 159.628 46.336C160.204 46.936 160.901 47.416 161.741 47.752C162.581 48.112 163.54 48.28 164.62 48.28C165.748 48.28 166.78 48.064 167.692 47.632C168.604 47.2 169.325 46.6 169.9 45.832ZM164.117 37.768C164.909 37.768 165.533 38.008 165.965 38.488C166.396 38.968 166.636 39.496 166.66 40.072H161.213C161.405 39.304 161.764 38.728 162.269 38.344C162.749 37.96 163.372 37.768 164.117 37.768Z" fill="#000091"/>
<defs>
<linearGradient id="paint0_linear_1:4166" x1="-0.0216271" y1="49.9959" x2="88.0712" y2="49.9959" gradientUnits="userSpaceOnUse">
<stop stop-color="#000091"/>
<stop offset="1" stop-color="#E1000F"/>
</linearGradient>
</defs>
</svg>
